<?xml version="1.0" encoding="UTF-8" standalone="no"?>
<!DOCTYPE svg PUBLIC "-//W3C//DTD SVG 1.1//EN" "http://www.w3.org/Graphics/SVG/1.1/DTD/svg11.dtd">
<svg width="100%" height="100%" viewBox="0 0 4156 1808" version="1.1" xmlns="http://www.w3.org/2000/svg" xmlns:xlink="http://www.w3.org/1999/xlink" xml:space="preserve" xmlns:serif="http://www.serif.com/" style="fill-rule:evenodd;clip-rule:evenodd;stroke-linecap:round;stroke-linejoin:round;stroke-miterlimit:1.5;">
    <g transform="matrix(1,0,0,1,-7811,0)">
        <g id="Component-B-Rotating-Valves" serif:id="Component B Rotating Valves" transform="matrix(0.351766,0,0,0.153005,7811.83,0)">
            <rect x="0" y="0" width="11811" height="11811" style="fill:none;"/>
            <g transform="matrix(2.8428,0,0,6.53574,-5.17913,0)">
                <text x="67.447px" y="102.337px" style="font-family:'ArialMT', 'Arial', sans-serif;font-size:83.333px;">Side view of Rotating V<tspan x="922.835px 969.181px " y="102.337px 102.337px ">al</tspan>ves (R<tspan x="1226.95px 1282.54px " y="102.337px 102.337px ">V)</tspan></text>
            </g>
            <g transform="matrix(2.8428,0,0,6.53574,-13993.1,-22902)">
                <text x="6358.3px" y="3809.05px" style="font-family:'ArialMT', 'Arial', sans-serif;font-size:50px;">T<tspan x="6386.98px 6398.09px " y="3809.05px 3809.05px ">im</tspan>ing belt</text>
            </g>
            <g transform="matrix(2.8428,0,0,6.53574,-7788.94,-22630.5)">
                <text x="6358.3px" y="3809.05px" style="font-family:'ArialMT', 'Arial', sans-serif;font-size:50px;">Sealing lip</text>
            </g>
            <g transform="matrix(2.8428,0,0,6.53574,-8249.53,-21352.6)">
                <text x="6358.3px" y="3809.05px" style="font-family:'ArialMT', 'Arial', sans-serif;font-size:50px;">Half open</text>
            </g>
            <g transform="matrix(2.8428,0,0,6.53574,-8249.53,-15573.4)">
                <text x="6358.3px" y="3809.05px" style="font-family:'ArialMT', 'Arial', sans-serif;font-size:50px;">Half open</text>
            </g>
            <g transform="matrix(2.8428,0,0,6.53574,-9301.29,-20701.9)">
                <text x="6358.3px" y="3809.05px" style="font-family:'ArialMT', 'Arial', sans-serif;font-size:50px;">Half closed</text>
            </g>
            <g transform="matrix(2.8428,0,0,6.53574,-8133.62,-18389.4)">
                <text x="6358.3px" y="3809.05px" style="font-family:'ArialMT', 'Arial', sans-serif;font-size:50px;">Half closed</text>
            </g>
            <g transform="matrix(2.8428,0,0,6.53574,-7046.95,-17601.6)">
                <text x="6358.3px" y="3809.05px" style="font-family:'ArialMT', 'Arial', sans-serif;font-size:50px;">Air inlet</text>
            </g>
            <g transform="matrix(2.8428,0,0,6.53574,-13344.7,-20850.9)">
                <text x="6358.3px" y="3809.05px" style="font-family:'ArialMT', 'Arial', sans-serif;font-size:50px;">Air inlet</text>
            </g>
            <g transform="matrix(2.8428,0,0,6.53574,-9702.59,-14416.8)">
                <text x="6358.3px" y="3809.05px" style="font-family:'ArialMT', 'Arial', sans-serif;font-size:50px;">Active air outlet</text>
            </g>
            <g transform="matrix(2.8428,0,0,6.53574,-14966.2,-23546.5)">
                <text x="6358.3px" y="3809.05px" style="font-family:'ArialMT', 'Arial', sans-serif;font-size:50px;">T<tspan x="6386.98px 6398.09px " y="3809.05px 3809.05px ">im</tspan>ing belt retention lip (glued on)</text>
            </g>
            <g transform="matrix(2.8428,0,0,6.53574,-13775,-22279.5)">
                <text x="6358.3px" y="3809.05px" style="font-family:'ArialMT', 'Arial', sans-serif;font-size:50px;">Comp. B face plate</text>
            </g>
            <g transform="matrix(2.8428,0,0,6.53574,-13921.9,-21933.1)">
                <path d="M6067.75,3742.82L6315.3,3648.16" style="fill:none;stroke:black;stroke-width:1px;"/>
            </g>
            <g transform="matrix(2.8428,0,0,6.53574,-7243.98,-22015.4)">
                <path d="M6067.75,3742.82L6156,3708.08" style="fill:none;stroke:black;stroke-width:1px;"/>
            </g>
            <g transform="matrix(2.8428,0,0,6.53574,-7709.56,-21315.6)">
                <path d="M6067.75,3742.82L6162.09,3790.16" style="fill:none;stroke:black;stroke-width:1px;"/>
            </g>
            <g transform="matrix(2.8428,0,0,6.53574,-8756.32,-20086.7)">
                <path d="M6093.87,3625.3L6160.38,3697.02" style="fill:none;stroke:black;stroke-width:1px;"/>
            </g>
            <g transform="matrix(2.8428,0,0,6.53574,-13201.8,-21407.5)">
                <path d="M6040.61,3753.05L6134.92,3662.39" style="fill:none;stroke:black;stroke-width:1px;"/>
            </g>
            <g transform="matrix(1.86735,0,0,7.81883,-18301.9,6.49166)">
                <rect x="10601.5" y="268.714" width="940.159" height="149.429" style="fill:rgb(218,218,218);stroke:rgb(44,79,255);stroke-width:1.04px;"/>
            </g>
            <g transform="matrix(2.30111,0,0,7.81883,-23104.4,1174.85)">
                <rect x="10601.5" y="268.714" width="940.159" height="149.429" style="fill:rgb(218,218,218);stroke:rgb(44,79,255);stroke-width:0.98px;"/>
            </g>
            <g transform="matrix(2.30111,0,0,2.00429,-23104.4,1269.44)">
                <rect x="10601.5" y="268.714" width="940.159" height="149.429" style="fill:rgb(218,218,218);stroke:rgb(44,79,255);stroke-width:1.63px;"/>
            </g>
            <g transform="matrix(8.33127,0,0,6.53574,-66135.6,-260.33)">
                <rect x="8107.27" y="397.176" width="230.37" height="74.715" style="fill:rgb(44,79,255);stroke:black;stroke-width:0.46px;"/>
            </g>
            <g transform="matrix(3.52222e-16,13.2247,-2.8428,4.00198e-16,15541.1,-18845.3)">
                <rect x="1672.73" y="3941.29" width="116.742" height="310.461" style="fill:rgb(242,242,242);"/>
            </g>
            <g transform="matrix(3.52222e-16,13.2247,-2.8428,4.00198e-16,12489.8,-18845.3)">
                <rect x="1672.73" y="3941.29" width="116.742" height="310.461" style="fill:rgb(242,242,242);"/>
            </g>
            <g transform="matrix(3.52222e-16,13.2247,-2.8428,4.00198e-16,21943.4,-15137.6)">
                <rect x="1672.73" y="3941.29" width="116.742" height="310.461" style="fill:rgb(242,242,242);"/>
            </g>
            <g transform="matrix(3.52222e-16,13.2247,-5.30125,7.46291e-16,29940.4,-16383.8)">
                <rect x="1672.73" y="3941.29" width="116.742" height="310.461" style="fill:rgb(242,242,242);"/>
            </g>
            <g transform="matrix(3.52222e-16,13.2247,-5.30125,7.46291e-16,29940.4,-13891.4)">
                <rect x="1672.73" y="3941.29" width="116.742" height="310.461" style="fill:rgb(242,242,242);"/>
            </g>
            <g transform="matrix(2.12311,0,0,5.29805,-10688.4,-6034.55)">
                <path d="M6832.04,1941.12L6832.04,2011.85L6713.93,1903.04L6832.04,1794.22L6832.04,1864.95L7024.39,1864.95L7024.39,1941.12L6832.04,1941.12Z" style="fill:none;stroke:black;stroke-width:10.69px;"/>
            </g>
            <g transform="matrix(2.12311,0,0,5.29805,-13739.8,-6034.55)">
                <path d="M6832.04,1941.12L6832.04,2011.85L6713.93,1903.04L6832.04,1794.22L6832.04,1864.95L7024.39,1864.95L7024.39,1941.12L6832.04,1941.12Z" style="fill:none;stroke:black;stroke-width:10.69px;"/>
            </g>
            <g transform="matrix(2.8428,0,0,6.0538,-21994.6,385.894)">
                <rect x="8009.46" y="426.379" width="1124.15" height="51.005" style="fill:rgb(185,185,185);stroke:black;stroke-width:1.04px;"/>
            </g>
            <g transform="matrix(2.8428,0,0,6.53574,-22207.4,0)">
                <path d="M8982.34,565.516L10200,791.152" style="fill:none;stroke:black;stroke-width:1px;"/>
            </g>
            <g transform="matrix(2.8428,0,0,6.53574,-21734.4,93.3396)">
                <text x="10197px" y="123.43px" style="font-family:'ArialMT', 'Arial', sans-serif;font-size:83.333px;">Side view of rotating valve body</text>
            </g>
            <g transform="matrix(2.8428,0,0,6.53574,-21734.4,4682.68)">
                <text x="10197px" y="123.43px" style="font-family:'ArialMT', 'Arial', sans-serif;font-size:83.333px;">Bottom view of rotating valve body</text>
            </g>
            <g transform="matrix(4.45608,0,0,10.2447,-16844.4,-11335.4)">
                <circle cx="5810.28" cy="1863.49" r="196.99" style="fill:rgb(218,218,218);stroke:black;stroke-width:0.64px;"/>
            </g>
            <g transform="matrix(2.46193,-3.26787,1.4214,5.66011,-19706.9,36966.4)">
                <path d="M11302.9,1186.64C11302.9,1016.1 11164.7,877.856 10994.1,877.856C10823.6,877.856 10685.3,1016.1 10685.3,1186.64L11302.9,1186.64Z" style="fill:rgb(202,202,202);stroke:black;stroke-width:1px;"/>
            </g>
            <g transform="matrix(2.8428,0,0,6.53574,-22207.4,0)">
                <path d="M8866.89,276.636L8902.12,196.782" style="fill:none;stroke:black;stroke-width:1px;"/>
            </g>
            <g transform="matrix(2.8428,0,0,6.53574,-22207.4,0)">
                <path d="M11259.7,357.344L11331.4,357.344L11331.4,409.292L10950.9,409.292L10950.9,536.109L10570.4,536.109L10570.4,357.344L10642.1,357.344L10642.1,178.579L11259.7,178.579L11259.7,357.344Z" style="fill:rgb(218,218,218);stroke:rgb(44,79,255);stroke-width:1px;"/>
            </g>
            <g transform="matrix(2.8428,0,0,19.1197,-22528.4,-979.943)">
                <path d="M10312.9,77.872L10312.9,565.516" style="fill:none;stroke:black;stroke-width:0.46px;"/>
            </g>
            <g transform="matrix(2.8428,0,0,6.53574,-7588.65,-17774.2)">
                <path d="M5858.28,3743.2L6160.38,3697.02" style="fill:none;stroke:black;stroke-width:1px;"/>
            </g>
            <g transform="matrix(2.8428,0,0,6.53574,-6501.99,-16986.4)">
                <path d="M6028.07,3715.51L6160.38,3697.02" style="fill:none;stroke:black;stroke-width:1px;"/>
            </g>
            <g transform="matrix(2.8428,0,0,6.53574,-12799.7,-20235.8)">
                <path d="M6028.07,3715.51L6160.38,3697.02" style="fill:none;stroke:black;stroke-width:1px;"/>
            </g>
            <g transform="matrix(2.8428,0,0,6.53574,-9157.62,-13801.6)">
                <path d="M6058.97,3589.53L6160.38,3697.02" style="fill:none;stroke:black;stroke-width:1px;"/>
            </g>
            <g transform="matrix(2.8428,0,0,6.53574,-7709.56,-15536.4)">
                <path d="M6067.75,3742.82L6162.09,3790.16" style="fill:none;stroke:black;stroke-width:1px;"/>
            </g>
            <g transform="matrix(2.8428,0,0,6.53574,-22207.4,0)">
                <path d="M11678.9,1186.64C11678.9,1186.64 11558.7,1187.78 11302.9,1186.64C11047.2,1185.5 11076.8,1377.31 10759.2,1377.31L10295.7,1377.31" style="fill:none;stroke:black;stroke-width:8.33px;stroke-dasharray:8.33,33.33,0,0;"/>
            </g>
            <g transform="matrix(1.08504,0,0,6.53574,-3646.28,-1723.65)">
                <path d="M9837.05,1641.04L9837.05,1688.58L9712.5,1641.04L9837.05,1593.5L9837.05,1641.04Z" style="fill:rgb(242,242,242);stroke:black;stroke-width:11.01px;"/>
            </g>
            <g transform="matrix(1.08504,0,0,6.53574,117.018,-2969.86)">
                <path d="M9837.05,1641.04L9837.05,1688.58L9712.5,1641.04L9837.05,1593.5L9837.05,1641.04Z" style="fill:rgb(242,242,242);stroke:black;stroke-width:11.01px;"/>
            </g>
        </g>
    </g>
</svg>
